<svg width="60" height="44" viewBox="0 0 60 44" fill="none" xmlns="http://www.w3.org/2000/svg">
<path d="M6.625 0.75C3.12937 0.75 0.25 3.62937 0.25 7.125V36.875C0.25 40.3706 3.12937 43.25 6.625 43.25H53.375C56.8706 43.25 59.75 40.3706 59.75 36.875V7.125C59.75 3.62937 56.8706 0.75 53.375 0.75H6.625ZM6.625 5H53.375C54.5778 5 55.5 5.92225 55.5 7.125V36.875C55.5 38.0778 54.5778 39 53.375 39H6.625C5.42225 39 4.5 38.0778 4.5 36.875V7.125C4.5 5.92225 5.42225 5 6.625 5ZM19.3708 11.375C18.3826 11.375 17.2542 11.9381 16.5233 12.7605C15.958 13.4426 15.3439 14.5264 15.5564 15.608C16.57 15.727 17.6771 15.0916 18.3125 14.2693C19.018 13.5149 19.4175 12.4566 19.3708 11.375ZM23.625 15.625V28.375H25.6055V24.0081H28.3616C30.8585 24.0081 32.6222 22.2911 32.6222 19.8176C32.6222 17.3207 30.8797 15.625 28.4062 15.625H23.625ZM12.6557 16.7364C10.4457 16.7364 8.75 18.6701 8.75 21.4433C8.75 25.0557 11.2873 28.375 12.8725 28.375C13.8287 28.375 14.1773 27.7311 15.448 27.7311C16.6189 27.7311 16.9886 28.375 17.9852 28.375C19.8765 28.375 21.4405 24.5287 21.5 24.295C21.1876 24.1378 19.3686 23.2814 19.3708 21.2116C19.3708 19.2014 21.0304 18.3004 21.109 18.26C20.191 16.8936 18.746 16.7364 18.1999 16.7364C16.9312 16.7364 15.822 17.4227 15.2164 17.4227C14.5916 17.4227 13.6715 16.7364 12.6557 16.7364ZM25.6055 17.2974H27.8877C29.6069 17.2974 30.5971 18.2154 30.5971 19.8176C30.5971 21.4199 29.6069 22.3612 27.8877 22.3612H25.6055V17.2974ZM37.2887 18.8784C35.1935 18.8784 33.6359 20.0811 33.5913 21.7301H35.3784C35.5208 20.9524 36.2496 20.4339 37.2378 20.4339C38.4618 20.4339 39.1269 21.0012 39.1269 22.0382V22.7438L36.6534 22.9095C34.369 23.0519 33.1174 23.9932 33.1174 25.6189C33.1174 27.2679 34.3903 28.375 36.2262 28.375C37.4736 28.375 38.6318 27.7375 39.1481 26.7472H39.1927V28.2794H41.0309V21.9214C41.0309 20.0833 39.5498 18.8784 37.2887 18.8784ZM41.8447 18.9995L45.1895 28.3049L45.0238 28.868C44.7178 29.8115 44.2226 30.1898 43.3514 30.1898C43.1878 30.1898 42.8839 30.1642 42.767 30.1642V31.6943C42.886 31.7176 43.3747 31.741 43.5171 31.741C45.4509 31.741 46.3689 30.9888 47.1721 28.7745L50.6316 18.9995H48.6278L46.2988 26.5369H46.2477L43.9209 18.9995H41.8447ZM39.1248 24.0825V24.7922H39.1226C39.1226 25.9929 38.1111 26.8386 36.7703 26.8386C35.7078 26.8386 35.0511 26.3477 35.0511 25.57C35.0511 24.7689 35.6865 24.295 36.936 24.2249L39.1248 24.0825Z" fill="black"/>
</svg>
