<svg width="28" height="29" viewBox="0 0 28 29" fill="none" xmlns="http://www.w3.org/2000/svg">
<path d="M22.3334 0.666687H5.66675C2.91008 0.666687 0.666748 2.91002 0.666748 5.66669V24C0.666748 26.7567 2.91008 29 5.66675 29H22.3334C25.0901 29 27.3334 26.7567 27.3334 24V5.66669C27.3334 2.91002 25.0901 0.666687 22.3334 0.666687ZM24.0001 24C24.0001 24.9184 23.2534 25.6667 22.3334 25.6667H5.66675C4.74675 25.6667 4.00008 24.9184 4.00008 24V11.8667C4.49341 12.1567 5.05841 12.3334 5.66675 12.3334H8.16675C8.16675 15.55 10.7834 18.1667 14.0001 18.1667C17.2167 18.1667 19.8334 15.55 19.8334 12.3334H22.3334C22.9417 12.3334 23.5067 12.1567 24.0001 11.8684V24ZM9.83341 12.3334H18.1667C18.1667 14.63 16.2984 16.5 14.0001 16.5C11.7017 16.5 9.83341 14.63 9.83341 12.3334ZM24.0001 9.00002C24.0001 9.91835 23.2534 10.6667 22.3334 10.6667H5.66675C4.74675 10.6667 4.00008 9.91835 4.00008 9.00002V5.66669C4.00008 4.74835 4.74675 4.00002 5.66675 4.00002H22.3334C23.2534 4.00002 24.0001 4.74835 24.0001 5.66669V9.00002Z" fill="black"/>
</svg>
