<svg width="26" height="26" viewBox="0 0 26 26" fill="none" xmlns="http://www.w3.org/2000/svg">
<path d="M25.2563 12.4568C24.9551 12.4568 24.7126 12.7005 24.7126 13.0005V24.7132H1.28762V1.28822H13.0003C13.3015 1.28822 13.544 1.04447 13.544 0.744481C13.544 0.44323 13.3003 0.200737 13.0003 0.200737H0.743939C0.442688 0.200737 0.200195 0.444487 0.200195 0.744481V25.2571C0.200195 25.5584 0.443946 25.8009 0.743939 25.8009H25.2566C25.5578 25.8009 25.8003 25.5571 25.8003 25.2571V13.0008C25.8003 12.6995 25.5566 12.4571 25.2566 12.4571L25.2563 12.4568Z" fill="black"/>
<path d="M25.4637 0.241279C25.3962 0.216279 25.3262 0.200027 25.2562 0.200027H17.9026C17.6013 0.200027 17.3589 0.443778 17.3589 0.743772C17.3589 1.04502 17.6026 1.28752 17.9026 1.28752H23.9413L12.6162 12.6162C12.405 12.8274 12.405 13.1724 12.6162 13.3874C12.7212 13.4924 12.8625 13.5474 12.9999 13.5474C13.1374 13.5474 13.2787 13.4924 13.3837 13.3874L24.7123 2.05878V8.0975C24.7123 8.39875 24.9561 8.64124 25.2561 8.64124C25.5573 8.64124 25.7998 8.3975 25.7998 8.0975V0.7439C25.7998 0.6739 25.7836 0.602649 25.7586 0.536399C25.7036 0.405148 25.5948 0.296399 25.4636 0.241397L25.4637 0.241279Z" fill="black"/>
</svg>
