<svg width="31" height="26" viewBox="0 0 31 26" fill="none" xmlns="http://www.w3.org/2000/svg">
<path d="M8.35702 0.078491C6.42869 0.078491 4.50035 0.835527 3.03159 2.33474C0.0940652 5.33317 0.0971139 10.1513 3.03159 13.153L15.3924 25.7997C15.4657 25.8769 15.5696 25.9215 15.6795 25.9215C15.7879 25.9215 15.8917 25.8769 15.9665 25.7997C20.092 21.5886 24.2144 17.3759 28.3395 13.1647C31.277 10.1663 31.277 5.3451 28.3395 2.34652C25.402 -0.652059 20.6263 -0.651907 17.6886 2.34652L15.6855 4.37716L13.6824 2.33466C12.2136 0.835451 10.2853 0.0784149 8.35693 0.0784149L8.35702 0.078491ZM8.35702 0.826635C10.0746 0.826635 11.7969 1.50501 13.1208 2.85728L15.4049 5.19663C15.4782 5.27382 15.582 5.31835 15.6919 5.31835C15.8003 5.31835 15.9041 5.27382 15.979 5.19663L18.2508 2.86913C20.8998 0.164599 25.1166 0.164599 27.7658 2.86913C30.4148 5.57367 30.4148 9.93789 27.7658 12.6424C23.7381 16.754 19.7134 20.8686 15.686 24.9806L3.60618 12.6306C0.960268 9.92308 0.957219 5.56067 3.60618 2.85735C4.92989 1.50509 6.63989 0.826711 8.35744 0.826711L8.35702 0.826635Z" fill="black"/>
</svg>
