<svg width="21" height="16" viewBox="0 0 21 16" fill="none" xmlns="http://www.w3.org/2000/svg">
<g clip-path="url(#clip0_45_10308)">
<path d="M4.1359 15.9205V14.8615C4.1359 14.4555 3.89575 14.1908 3.48411 14.1908C3.27833 14.1908 3.05536 14.2614 2.90098 14.4908C2.78098 14.2967 2.6095 14.1908 2.35223 14.1908C2.18067 14.1908 2.00926 14.2437 1.872 14.4379V14.2261H1.51184V15.9205H1.872V14.985C1.872 14.685 2.02637 14.5438 2.26653 14.5438C2.50653 14.5438 2.62668 14.7026 2.62668 14.985V15.9205H2.98684V14.985C2.98684 14.685 3.15825 14.5438 3.38122 14.5438C3.62137 14.5438 3.74137 14.7026 3.74137 14.985V15.9205H4.1359ZM9.46957 14.2261H8.88653V13.7142H8.52637V14.2261H8.20051V14.5614H8.52629V15.338C8.52629 15.7264 8.68067 15.9558 9.09231 15.9558C9.24668 15.9558 9.41809 15.9029 9.53825 15.8323L9.43528 15.5145C9.33239 15.5851 9.21239 15.6028 9.12661 15.6028C8.95512 15.6028 8.88653 15.4969 8.88653 15.3204V14.5614H9.46957V14.2261ZM12.5224 14.1907C12.3166 14.1907 12.1794 14.2967 12.0936 14.4379V14.2261H11.7335V15.9205H12.0936V14.9674C12.0936 14.685 12.2136 14.5261 12.4366 14.5261C12.5052 14.5261 12.591 14.5438 12.6596 14.5614L12.7625 14.2085C12.6939 14.1908 12.591 14.1908 12.5224 14.1908M7.90895 14.3674C7.73739 14.2438 7.49731 14.1909 7.24004 14.1909C6.82848 14.1909 6.55411 14.4026 6.55411 14.738C6.55411 15.0205 6.75989 15.1793 7.12004 15.2322L7.29153 15.2499C7.4802 15.2851 7.58309 15.3381 7.58309 15.4264C7.58309 15.5499 7.4459 15.6382 7.20575 15.6382C6.96567 15.6382 6.777 15.5499 6.65692 15.4617L6.48543 15.7441C6.67411 15.8853 6.93137 15.9559 7.18856 15.9559C7.66879 15.9559 7.94325 15.7265 7.94325 15.4087C7.94325 15.1087 7.72028 14.9498 7.37723 14.8969L7.20575 14.8792C7.05137 14.8615 6.93137 14.8263 6.93137 14.7204C6.93137 14.5968 7.05137 14.5262 7.24004 14.5262C7.4459 14.5262 7.65168 14.6144 7.75457 14.6674L7.90895 14.3674ZM17.4789 14.1909C17.273 14.1909 17.1358 14.2968 17.05 14.4379V14.2262H16.6899V15.9206H17.05V14.9675C17.05 14.6851 17.1701 14.5262 17.393 14.5262C17.4617 14.5262 17.5475 14.5439 17.6161 14.5615L17.719 14.2086C17.6504 14.1909 17.5475 14.1909 17.4789 14.1909ZM12.8825 15.0734C12.8825 15.5852 13.2255 15.9559 13.7572 15.9559C13.9973 15.9559 14.1688 15.9029 14.3403 15.7618L14.1688 15.4617C14.0316 15.5676 13.8944 15.6205 13.74 15.6205C13.4485 15.6205 13.2427 15.4087 13.2427 15.0734C13.2427 14.7557 13.4485 14.5438 13.74 14.5262C13.8944 14.5262 14.0316 14.5791 14.1688 14.6851L14.3403 14.385C14.1688 14.2438 13.9973 14.1909 13.7572 14.1909C13.2255 14.1909 12.8825 14.5615 12.8825 15.0734ZM16.2097 15.0734V14.2262H15.8496V14.4379C15.7295 14.2792 15.558 14.1909 15.335 14.1909C14.872 14.1909 14.5118 14.5615 14.5118 15.0734C14.5118 15.5852 14.872 15.9559 15.335 15.9559C15.5751 15.9559 15.7467 15.8677 15.8496 15.7088V15.9206H16.2097V15.0734ZM14.8891 15.0734C14.8891 14.7733 15.0778 14.5262 15.3864 14.5262C15.678 14.5262 15.8839 14.7557 15.8839 15.0734C15.8839 15.3734 15.678 15.6205 15.3864 15.6205C15.0778 15.6028 14.8891 15.3734 14.8891 15.0734ZM10.5844 14.1909C10.1042 14.1909 9.76114 14.5438 9.76114 15.0734C9.76114 15.6029 10.1041 15.9559 10.6015 15.9559C10.8416 15.9559 11.0818 15.8853 11.2704 15.7265L11.0989 15.4617C10.9617 15.5676 10.7902 15.6382 10.6187 15.6382C10.3957 15.6382 10.1728 15.5323 10.1213 15.2322H11.339V15.091C11.3562 14.5438 11.0475 14.1909 10.5844 14.1909ZM10.5843 14.5085C10.8072 14.5085 10.9617 14.6498 10.9959 14.9146H10.1384C10.1727 14.6851 10.3271 14.5085 10.5843 14.5085ZM19.5197 15.0734V13.5555H19.1595V14.4379C19.0394 14.2792 18.8679 14.1909 18.645 14.1909C18.1819 14.1909 17.8218 14.5615 17.8218 15.0734C17.8218 15.5852 18.1819 15.9559 18.645 15.9559C18.8851 15.9559 19.0566 15.8677 19.1595 15.7088V15.9206H19.5197V15.0734ZM18.1991 15.0734C18.1991 14.7733 18.3877 14.5262 18.6964 14.5262C18.988 14.5262 19.1938 14.7557 19.1938 15.0734C19.1938 15.3734 18.988 15.6205 18.6964 15.6205C18.3877 15.6028 18.1991 15.3734 18.1991 15.0734ZM6.1595 15.0734V14.2262H5.79934V14.4379C5.67926 14.2792 5.50778 14.1909 5.28481 14.1909C4.82176 14.1909 4.46161 14.5615 4.46161 15.0734C4.46161 15.5852 4.82176 15.9559 5.28481 15.9559C5.52497 15.9559 5.69645 15.8677 5.79934 15.7088V15.9206H6.1595V15.0734ZM4.82176 15.0734C4.82176 14.7733 5.01043 14.5262 5.31911 14.5262C5.61067 14.5262 5.81653 14.7557 5.81653 15.0734C5.81653 15.3734 5.61067 15.6205 5.31911 15.6205C5.01043 15.6028 4.82176 15.3734 4.82176 15.0734Z" fill="black"/>
<path d="M7.78894 1.35904H13.1913V11.3491H7.78894V1.35904Z" fill="#FF5F00"/>
<path d="M8.13195 6.35409C8.13195 4.32434 9.05805 2.52398 10.4815 1.35904C9.43539 0.511839 8.11484 0 6.67422 0C3.26117 0 0.5 2.84165 0.5 6.35409C0.5 9.86645 3.26117 12.7082 6.67414 12.7082C8.11477 12.7082 9.43531 12.1963 10.4815 11.3491C9.05805 10.2018 8.13195 8.38384 8.13195 6.35409Z" fill="#EB001B"/>
<path d="M20.4801 6.35409C20.4801 9.86645 17.719 12.7082 14.306 12.7082C12.8654 12.7082 11.5448 12.1963 10.4987 11.3491C11.9393 10.1842 12.8483 8.38384 12.8483 6.35409C12.8483 4.32434 11.9221 2.52398 10.4987 1.35904C11.5448 0.511839 12.8654 0 14.306 0C17.719 0 20.4801 2.85934 20.4801 6.35409Z" fill="#F79E1B"/>
</g>
<defs>
<clipPath id="clip0_45_10308">
<rect width="20" height="16" fill="white" transform="translate(0.5)"/>
</clipPath>
</defs>
</svg>
