<svg width="23" height="23" viewBox="0 0 23 23" fill="none" xmlns="http://www.w3.org/2000/svg">
<path fill-rule="evenodd" clip-rule="evenodd" d="M11.4066 19.5981L5.72492 22.7309C5.52409 22.8416 5.29771 22.8912 5.0714 22.8741C4.84508 22.8569 4.62785 22.7737 4.44427 22.6339C4.26068 22.494 4.11807 22.303 4.03255 22.0826C3.94703 21.8621 3.92202 21.621 3.96034 21.3864L5.04511 14.7509L0.448191 10.0504C0.285569 9.88422 0.170549 9.6736 0.11615 9.44239C0.0617517 9.21118 0.0701472 8.96862 0.140387 8.74215C0.210626 8.51569 0.339904 8.31437 0.513586 8.16099C0.687269 8.00761 0.89842 7.90829 1.12314 7.87428L7.47492 6.90612L10.3158 0.868834C10.4161 0.65522 10.5715 0.47534 10.7643 0.349555C10.9571 0.22377 11.1796 0.157104 11.4066 0.157104C11.6337 0.157104 11.8562 0.22377 12.049 0.349555C12.2418 0.47534 12.3971 0.65522 12.4975 0.868834L15.3383 6.90612L21.6901 7.87555C21.9146 7.90975 22.1255 8.00911 22.2989 8.1624C22.4724 8.3157 22.6015 8.51683 22.6717 8.74305C22.7419 8.96928 22.7504 9.2116 22.6962 9.44262C22.642 9.67364 22.5273 9.88417 22.3651 10.0504L17.7669 14.7509L18.8517 21.3864C18.8899 21.6208 18.8648 21.8617 18.7793 22.082C18.6938 22.3023 18.5514 22.4931 18.368 22.6329C18.1846 22.7727 17.9676 22.856 17.7415 22.8733C17.5154 22.8906 17.2891 22.8413 17.0883 22.7309L11.4066 19.5981Z" fill="black"/>
</svg>
