<svg width="13" height="14" viewBox="0 0 13 14" fill="none" xmlns="http://www.w3.org/2000/svg">
<g clip-path="url(#clip0_45_10315)">
<path d="M10.6797 1.08973C10.0265 0.353476 8.84585 0.0378265 7.3354 0.0378265H2.95165C2.80221 0.037832 2.65767 0.0905602 2.54401 0.186531C2.43036 0.282502 2.35506 0.415421 2.33164 0.561389L0.506324 12.0102C0.470042 12.236 0.646808 12.4404 0.878183 12.4404H3.58456L4.26425 8.17683L4.24315 8.31034C4.29157 8.00897 4.5522 7.78669 4.86082 7.78669H6.14689C8.67336 7.78669 10.6516 6.77183 11.2295 3.83604C11.2467 3.74922 11.2615 3.66471 11.2744 3.58214C11.2014 3.54395 11.2014 3.54395 11.2744 3.58214C11.4464 2.49705 11.2732 1.75844 10.6797 1.08973Z" fill="#27346A"/>
<path d="M5.29981 3.19126C5.3738 3.15642 5.45472 3.13836 5.53667 3.13841H8.97345C9.38042 3.13841 9.76001 3.1646 10.1069 3.21981C10.204 3.23512 10.3005 3.25339 10.3964 3.27461C10.5324 3.30428 10.6668 3.34059 10.7991 3.38341C10.9696 3.43973 11.1284 3.50533 11.2744 3.58214C11.4464 2.49663 11.2732 1.75844 10.6797 1.08973C10.0262 0.353476 8.84586 0.0378265 7.3354 0.0378265H2.95128C2.64261 0.0378265 2.38001 0.260065 2.33164 0.561389L0.506324 12.0098C0.470043 12.2359 0.646808 12.4401 0.877808 12.4401H3.58456L4.9947 3.59642C5.00856 3.5095 5.04358 3.4272 5.09673 3.35663C5.14988 3.28605 5.21957 3.2293 5.29981 3.19126Z" fill="#27346A"/>
<path d="M11.2295 3.83605C10.6517 6.77142 8.67345 7.7867 6.14693 7.7867H4.86049C4.55187 7.7867 4.2912 8.00898 4.24324 8.31035L3.39767 13.6116C3.36607 13.8092 3.52057 13.9882 3.7227 13.9882H6.0041C6.13479 13.9882 6.26118 13.942 6.36053 13.858C6.45989 13.7741 6.5257 13.6578 6.54612 13.5302L6.56834 13.4152L6.99832 10.7202L7.02603 10.5712C7.04645 10.4436 7.11225 10.3273 7.21159 10.2434C7.31094 10.1594 7.43732 10.1132 7.56799 10.1132H7.90943C10.1194 10.1132 11.8499 9.22527 12.3556 6.65724C12.5667 5.58406 12.4575 4.68806 11.8991 4.05871C11.7297 3.86809 11.5194 3.71066 11.2744 3.58215C11.2611 3.66513 11.2467 3.74923 11.2295 3.83605Z" fill="#2790C3"/>
<path d="M10.6696 3.34369C10.5795 3.31767 10.4885 3.29463 10.3969 3.27461C10.3009 3.25374 10.2043 3.2356 10.1073 3.22019C9.76006 3.16461 9.38075 3.13837 8.97341 3.13837H5.53705C5.45504 3.13818 5.37405 3.1564 5.30019 3.19163C5.21986 3.22956 5.15008 3.28627 5.09691 3.35687C5.04374 3.42747 5.00877 3.50982 4.99503 3.5968L4.26462 8.17684L4.24353 8.31035C4.29158 8.00898 4.5522 7.78669 4.86087 7.78669H6.14731C8.67378 7.78669 10.652 6.77183 11.2299 3.83605C11.2471 3.74922 11.2615 3.66508 11.2748 3.58215C11.1284 3.50575 10.97 3.43974 10.7995 3.38379C10.7564 3.36967 10.7131 3.35631 10.6696 3.34369" fill="#1F264F"/>
</g>
<defs>
<clipPath id="clip0_45_10315">
<rect width="12" height="14" fill="white" transform="translate(0.5)"/>
</clipPath>
</defs>
</svg>
