<svg width="23" height="23" viewBox="0 0 23 23" fill="none" xmlns="http://www.w3.org/2000/svg">
<path fill-rule="evenodd" clip-rule="evenodd" d="M11.5934 19.4692L5.91174 22.602C5.71091 22.7127 5.48453 22.7623 5.25821 22.7452C5.0319 22.728 4.81467 22.6448 4.63109 22.505C4.4475 22.3651 4.30489 22.1741 4.21937 21.9537C4.13385 21.7332 4.10884 21.4921 4.14716 21.2575L5.23193 14.622L0.63501 9.9215C0.472389 9.75531 0.357368 9.54469 0.302969 9.31348C0.248571 9.08227 0.256966 8.83971 0.327206 8.61325C0.397445 8.38678 0.526723 8.18547 0.700405 8.03209C0.874088 7.87871 1.08524 7.77939 1.30996 7.74537L7.66174 6.77721L10.5026 0.739928C10.6029 0.526314 10.7583 0.346434 10.9511 0.220649C11.1439 0.0948639 11.3664 0.0281982 11.5934 0.0281982C11.8205 0.0281982 12.043 0.0948639 12.2358 0.220649C12.4286 0.346434 12.5839 0.526314 12.6843 0.739928L15.5252 6.77721L21.8769 7.74665C22.1014 7.78084 22.3123 7.8802 22.4857 8.0335C22.6592 8.1868 22.7883 8.38792 22.8585 8.61415C22.9287 8.84038 22.9372 9.08269 22.883 9.31371C22.8288 9.54474 22.7141 9.75526 22.5519 9.9215L17.9537 14.622L19.0385 21.2575C19.0767 21.4919 19.0516 21.7328 18.9661 21.9531C18.8806 22.1733 18.7382 22.3642 18.5548 22.504C18.3714 22.6438 18.1544 22.7271 17.9283 22.7444C17.7022 22.7617 17.4759 22.7124 17.2751 22.602L11.5934 19.4692Z" fill="#FFC107"/>
</svg>
