<svg width="11" height="12" viewBox="0 0 11 12" fill="none" xmlns="http://www.w3.org/2000/svg">
<path fill-rule="evenodd" clip-rule="evenodd" d="M7.37601 2.3999H10.2C10.3061 2.3999 10.4078 2.44205 10.4829 2.51706C10.5579 2.59207 10.6 2.69382 10.6 2.7999C10.6 2.90599 10.5579 3.00773 10.4829 3.08275C10.4078 3.15776 10.3061 3.1999 10.2 3.1999H9.20001V11.1999C9.20001 11.306 9.15787 11.4077 9.08286 11.4827C9.00784 11.5578 8.9061 11.5999 8.80001 11.5999H2.00001C1.77601 11.5999 1.60001 11.4239 1.60001 11.1999V3.1999H0.600012C0.493926 3.1999 0.392184 3.15776 0.317169 3.08275C0.242155 3.00773 0.200012 2.90599 0.200012 2.7999C0.200012 2.69382 0.242155 2.59207 0.317169 2.51706C0.392184 2.44205 0.493926 2.3999 0.600012 2.3999H3.42401C3.45164 1.92246 3.61851 1.46357 3.90401 1.0799C4.24801 0.655902 4.76001 0.399902 5.40001 0.399902C6.04001 0.399902 6.55201 0.655902 6.89601 1.0799C7.1811 1.46379 7.34792 1.92256 7.37601 2.3999ZM5.40001 1.1999C4.99201 1.1999 4.71201 1.3519 4.52801 1.5839C4.37601 1.7759 4.28001 2.0639 4.24001 2.3999H6.56001C6.51201 2.0639 6.43201 1.7759 6.27201 1.5839C6.08001 1.3519 5.80801 1.1999 5.40001 1.1999ZM2.40001 3.1999V10.7999H8.40001V3.1999H2.40001ZM3.95716 4.31706C4.03217 4.24204 4.13392 4.1999 4.24 4.1999C4.34609 4.1999 4.44783 4.24204 4.52284 4.31706C4.59786 4.39207 4.64 4.49382 4.64 4.5999V9.3999C4.64 9.50599 4.59786 9.60773 4.52284 9.68275C4.44783 9.75776 4.34609 9.7999 4.24 9.7999C4.13392 9.7999 4.03217 9.75776 3.95716 9.68275C3.88214 9.60773 3.84 9.50599 3.84 9.3999V4.5999C3.84 4.49382 3.88214 4.39207 3.95716 4.31706ZM6.27716 4.31706C6.35217 4.24204 6.45392 4.1999 6.56 4.1999C6.66609 4.1999 6.76783 4.24204 6.84284 4.31706C6.91786 4.39207 6.96 4.49382 6.96 4.5999V9.3999C6.96 9.50599 6.91786 9.60773 6.84284 9.68275C6.76783 9.75776 6.66609 9.7999 6.56 9.7999C6.45392 9.7999 6.35217 9.75776 6.27716 9.68275C6.20214 9.60773 6.16 9.50599 6.16 9.3999V4.5999C6.16 4.49382 6.20214 4.39207 6.27716 4.31706Z" fill="black"/>
</svg>
