<svg width="28" height="28" viewBox="0 0 28 28" fill="none" xmlns="http://www.w3.org/2000/svg">
<path d="M14.0001 0.666687C15.7682 0.666687 17.4639 1.36907 18.7141 2.61931C19.9644 3.86955 20.6667 5.56524 20.6667 7.33335C20.6667 9.10146 19.9644 10.7972 18.7141 12.0474C17.4639 13.2976 15.7682 14 14.0001 14C12.232 14 10.5363 13.2976 9.28604 12.0474C8.03579 10.7972 7.33341 9.10146 7.33341 7.33335C7.33341 5.56524 8.03579 3.86955 9.28604 2.61931C10.5363 1.36907 12.232 0.666687 14.0001 0.666687ZM14.0001 4.00002C13.116 4.00002 12.2682 4.35121 11.6431 4.97633C11.0179 5.60145 10.6667 6.4493 10.6667 7.33335C10.6667 8.21741 11.0179 9.06525 11.6431 9.69038C12.2682 10.3155 13.116 10.6667 14.0001 10.6667C14.8841 10.6667 15.732 10.3155 16.3571 9.69038C16.9822 9.06525 17.3334 8.21741 17.3334 7.33335C17.3334 6.4493 16.9822 5.60145 16.3571 4.97633C15.732 4.35121 14.8841 4.00002 14.0001 4.00002ZM14.0001 15.6667C18.4501 15.6667 27.3334 17.8834 27.3334 22.3334V27.3334H0.666748V22.3334C0.666748 17.8834 9.55008 15.6667 14.0001 15.6667ZM14.0001 18.8334C9.05008 18.8334 3.83341 21.2667 3.83341 22.3334V24.1667H24.1667V22.3334C24.1667 21.2667 18.9501 18.8334 14.0001 18.8334Z" fill="black"/>
</svg>
