<svg width="38" height="12" viewBox="0 0 38 12" fill="none" xmlns="http://www.w3.org/2000/svg">
<g clip-path="url(#clip0_45_10313)">
<path d="M19.6355 3.82091C19.6144 5.48588 21.1188 6.41494 22.2521 6.96737C23.4164 7.53412 23.8075 7.89759 23.8029 8.40448C23.7942 9.18014 22.8742 9.5225 22.0132 9.5358C20.5111 9.55908 19.6377 9.13012 18.9433 8.80568L18.4022 11.3386C19.0989 11.6597 20.3888 11.9397 21.7264 11.952C24.8664 11.952 26.9206 10.4015 26.9317 7.99763C26.944 4.94674 22.7132 4.77788 22.7421 3.41421C22.752 3.00072 23.1465 2.55947 24.0108 2.44727C24.4386 2.3906 25.6195 2.34723 26.9585 2.964L27.484 0.513394C26.7639 0.251129 25.8385 -3.8147e-06 24.6863 -3.8147e-06C21.7309 -3.8147e-06 19.6523 1.57156 19.6355 3.82091ZM32.5336 0.211081C31.9603 0.211081 31.4771 0.545634 31.2615 1.05903L26.7762 11.772H29.9138L30.5382 10.0459H34.3723L34.7345 11.772H37.5L35.0868 0.211081H32.5336ZM32.9726 3.33412L33.878 7.67537H31.3982L32.9726 3.33412ZM15.8313 0.211226L13.3581 11.7719H16.348L18.8201 0.210937L15.8313 0.211226ZM11.4082 0.211226L8.29616 8.0799L7.03729 1.38925C6.88958 0.642358 6.30625 0.211081 5.65846 0.211081H0.571254L0.5 0.546791C1.54438 0.77349 2.73098 1.13913 3.44988 1.53036C3.88984 1.76935 4.01529 1.97826 4.15982 2.54616L6.54415 11.772H9.70375L14.5479 0.211081L11.4082 0.211226Z" fill="url(#paint0_linear_45_10313)"/>
</g>
<defs>
<linearGradient id="paint0_linear_45_10313" x1="1701.54" y1="35.9277" x2="1736.15" y2="-1191.56" gradientUnits="userSpaceOnUse">
<stop stop-color="#222357"/>
<stop offset="1" stop-color="#254AA5"/>
</linearGradient>
<clipPath id="clip0_45_10313">
<rect width="37" height="12" fill="white" transform="translate(0.5)"/>
</clipPath>
</defs>
</svg>
